<svg xmlns="http://www.w3.org/2000/svg" viewBox="0 0 500 500"><g id="freepik--background-complete--inject-4"><path d="M387.51,200.52S372,223.4,372,234.68c0,7.49,1.89,13.86,11.78,14.09s22.76.14,22.76.14,13.93-3.18,7.34-20.32a150,150,0,0,0-14.75-28Z" style="fill:#ebebeb"></path><path d="M405.45,185.74c-.16-1.11-1.52-1.6-2.65-1.59-4,.07-7.39,3.45-11.36,3.25-2.49-.13-4.66-1.65-6.95-2.64a4.5,4.5,0,0,0-1.75-.46,1.89,1.89,0,0,0-1.59.71c-.56.79-.21,1.87.16,2.77,1.84,4.39,4.88,8.75,7.09,13l11.48.47A21.09,21.09,0,0,1,404.46,188,3.05,3.05,0,0,0,405.45,185.74Z" style="fill:#ebebeb"></path><path d="M394.59,235.94l0,2.34h-2.09V236a10,10,0,0,1-5.19-1.7l1.17-2.55a8.38,8.38,0,0,0,4,1.51l0-3.49c-2.31-.58-4.9-1.36-4.88-4.35,0-2.22,1.63-4.11,4.94-4.47v-2.32h2.09v2.28a9.48,9.48,0,0,1,4.23,1.3l-1.06,2.57a8.58,8.58,0,0,0-3.19-1.11l0,3.56c2.31.55,4.86,1.34,4.84,4.29C399.47,233.69,397.87,235.56,394.59,235.94Zm-2-9.25,0-3c-1.11.25-1.55.85-1.56,1.54S391.63,226.39,392.55,226.69Zm3.57,5.06c0-.73-.6-1.13-1.5-1.45l0,2.88C395.65,233,396.11,232.42,396.12,231.75Z" style="fill:#e0e0e0"></path><path d="M387.77,207a14.5,14.5,0,0,1,1.22-5.39,15,15,0,0,1-1.22,5.39Z" style="fill:#e0e0e0"></path><path d="M388.7,214.14a32.5,32.5,0,0,1,.66-6.62,33.35,33.35,0,0,1,1.5-6.48,60.35,60.35,0,0,1-1,6.57A60.13,60.13,0,0,1,388.7,214.14Z" style="fill:#e0e0e0"></path><path d="M396.86,208a21.12,21.12,0,0,1-1.05-6.5,10.62,10.62,0,0,1,.78,3.21A10.74,10.74,0,0,1,396.86,208Z" style="fill:#e0e0e0"></path><path d="M387.57,192.28a22.88,22.88,0,0,1,5.13,7,25.58,25.58,0,0,1-2.65-3.41A26.3,26.3,0,0,1,387.57,192.28Z" style="fill:#e0e0e0"></path><path d="M391.12,189.12a42.57,42.57,0,0,1,1.38,5.1,39.44,39.44,0,0,1,1.2,5.14,20.72,20.72,0,0,1-1.71-5A20.25,20.25,0,0,1,391.12,189.12Z" style="fill:#e0e0e0"></path><path d="M405.28,238.72a8.79,8.79,0,0,0,1.75-3.51,8.91,8.91,0,0,0-.49-3.9s.38.32.68,1a5.38,5.38,0,0,1,.33,2.95,5.46,5.46,0,0,1-1.29,2.69C405.74,238.55,405.32,238.77,405.28,238.72Z" style="fill:#e0e0e0"></path><path d="M380.05,231.6c-.05,0-.34-.21-.63-.74a4.43,4.43,0,0,1-.51-2.3,4.54,4.54,0,0,1,.69-2.25c.33-.51.64-.73.69-.69a6.42,6.42,0,0,0-.24,6Z" style="fill:#e0e0e0"></path><path d="M399.33,202.25l-12.53-.08a1.65,1.65,0,0,1-1.65-1.66h0a1.65,1.65,0,0,1,1.67-1.64l12.53.07a1.66,1.66,0,0,1,1.65,1.67h0A1.66,1.66,0,0,1,399.33,202.25Z" style="fill:#e0e0e0"></path><path d="M70,210.7a1,1,0,0,1,0-.23c0-.18,0-.39,0-.66,0-.61,0-1.45,0-2.54,0-2.22,0-5.41-.08-9.44L70,198l-48.65.1c.11-.11-.25.25.24-.25h0V210.7l-.24-.24,34.67.11,10.23.07,2.77,0,.72,0H70a.94.94,0,0,1-.23,0h-.69l-2.72,0-10.17.07-34.84.11h-.25V197.85h0l.25-.25,48.65.1h.15v.15c0,4.07-.06,7.29-.08,9.53,0,1.07,0,1.91,0,2.5,0,.26,0,.47,0,.64A1.23,1.23,0,0,1,70,210.7Z" style="fill:#e0e0e0"></path><path d="M76.58,197.83s0-.09,0-.24,0-.41,0-.69c0-.63,0-1.49,0-2.58,0-2.25,0-5.44-.09-9.36l.17.18-29.23.07.25-.25h0v6.61c0,2.15,0,4.24,0,6.24l-.24-.24,20.91.12,6.1.06,1.64,0a4.55,4.55,0,0,1,.58,0,3.28,3.28,0,0,1-.53,0l-1.59,0-6,.06-21.07.12h-.23v-.24c0-2,0-4.09,0-6.24V185h0l.25-.25,29.23.07h.18V185c0,4-.07,7.19-.09,9.47,0,1.07,0,1.92,0,2.54A4.88,4.88,0,0,1,76.58,197.83Z" style="fill:#e0e0e0"></path><path d="M361,227.9a2.07,2.07,0,0,1,0-.23l0-.66c0-.61,0-1.45,0-2.53,0-2.23-.05-5.42-.09-9.45l.15.15-48.65.1.25-.25h0v6.52c0,2.15,0,4.26,0,6.33l-.24-.24,34.67.11,10.24.07,2.76,0,.73,0H361s-.07,0-.22,0H360l-2.71,0-10.18.06-34.84.11h-.24v-.25q0-3.1,0-6.33v-6.52h0l.25-.25,48.65.1h.16V215c0,4.07-.06,7.29-.08,9.53,0,1.07,0,1.91,0,2.5,0,.26,0,.47,0,.64S361,227.91,361,227.9Z" style="fill:#e0e0e0"></path><path d="M420.16,41.65a1.35,1.35,0,0,1,0-.24v-.66c0-.6,0-1.45,0-2.53,0-2.22,0-5.42-.08-9.45l.15.16L371.51,29l.24-.24h0V41.65l-.24-.25,34.67.11,10.23.07,2.77,0,.72,0,.26,0h-.23l-.69,0-2.72,0-10.17.07-34.84.11h-.25V28.78h0l.25-.25,48.65.09h.15v.15c0,4.07-.06,7.3-.08,9.54,0,1.07,0,1.9,0,2.5,0,.26,0,.47,0,.63A1.66,1.66,0,0,1,420.16,41.65Z" style="fill:#e0e0e0"></path><path d="M228,304s0-.09,0-.24,0-.39,0-.66c0-.6,0-1.45,0-2.53,0-2.22,0-5.42-.08-9.44l.15.15-48.65.09c.11-.11-.25.25.25-.24h0v6.52c0,2.14,0,4.26,0,6.33l-.24-.25,34.67.11,10.23.07,2.77,0h.73a1.27,1.27,0,0,1,.25,0h-.22l-.7,0-2.71,0-10.18.07-34.84.11h-.24V304c0-2.07,0-4.19,0-6.33v-6.52h0l.25-.25L228,291h.15v.15c0,4.06-.06,7.29-.08,9.53,0,1.07,0,1.9,0,2.5v.63A.85.85,0,0,1,228,304Z" style="fill:#e0e0e0"></path><path d="M234.57,291.1a1.41,1.41,0,0,1,0-.25c0-.18,0-.41,0-.68,0-.63,0-1.5,0-2.58,0-2.26-.06-5.45-.1-9.36l.18.17-29.23.07.24-.24h0v6.61c0,2.15,0,4.24,0,6.24l-.23-.24,20.91.11,6.09.07,1.64,0,.59,0a3.28,3.28,0,0,1-.53,0l-1.6,0-6,.06-21.07.11h-.24v-.23c0-2,0-4.09,0-6.24v-6.61h0c-.06,0,.47-.47.25-.25l29.23.07h.18v.18c0,4-.08,7.18-.1,9.47,0,1.07,0,1.91,0,2.54S234.58,291.11,234.57,291.1Z" style="fill:#e0e0e0"></path><rect x="37.64" y="386.27" width="44.64" height="11.81" style="fill:#ebebeb"></rect><path d="M63.41,410.52a1.66,1.66,0,0,1,0-.21c0-.16,0-.36,0-.61,0-.55,0-1.33,0-2.32,0-2-.05-5-.08-8.67l.14.14-44.64.09c.1-.1-.23.23.22-.23h0v11.79l-.22-.22,31.81.1,9.39.07,2.54,0h.9l-.21,0h-.63l-2.49,0-9.34.07-32,.1h-.23v-12h0c.45-.45.13-.12.23-.22l44.64.08h.14v.13c0,3.73-.06,6.69-.08,8.75,0,1,0,1.75,0,2.29,0,.24,0,.43,0,.59A.93.93,0,0,1,63.41,410.52Z" style="fill:#e0e0e0"></path><rect x="247.07" y="40.34" width="44.64" height="11.81" style="fill:#ebebeb"></rect><path d="M272.84,64.59a1.12,1.12,0,0,1,0-.22c0-.16,0-.35,0-.6,0-.56,0-1.33,0-2.33,0-2,0-5-.07-8.66l.14.13L228.19,53l.23-.22h0v6c0,2,0,3.91,0,5.81l-.22-.23,31.82.11,9.39.06,2.54,0h.66l.24,0h-.21l-.64,0-2.49,0-9.34.07-32,.1H228v-.22c0-1.9,0-3.84,0-5.81v-6h0l.23-.23,44.65.09H273v.14c0,3.73-.05,6.69-.07,8.74,0,1,0,1.75,0,2.3,0,.24,0,.43,0,.58S272.84,64.59,272.84,64.59Z" style="fill:#e0e0e0"></path><rect x="122.44" y="125.97" width="44.64" height="11.81" style="fill:#ebebeb"></rect><path d="M148.2,150.22s0-.08,0-.22,0-.36,0-.6c0-.56,0-1.33,0-2.33,0-2,0-5-.08-8.66l.14.13-44.64.09c.1-.1-.23.23.23-.22h0v11.81l-.22-.23,31.81.11,9.39.06,2.54,0H148l.23,0H148l-.64,0-2.49,0-9.34.07-32,.1h-.22v-.22c0-1.9,0-3.84,0-5.81v-6h0l.23-.23,44.64.09h.14v.14c0,3.73-.06,6.69-.08,8.74,0,1,0,1.75,0,2.3,0,.24,0,.43,0,.58S148.21,150.22,148.2,150.22Z" style="fill:#e0e0e0"></path><rect x="209.11" y="220.7" width="44.64" height="11.81" style="fill:#ebebeb"></rect><rect x="420.35" y="89" width="44.64" height="11.81" style="fill:#ebebeb"></rect><rect x="285.67" y="124.96" width="44.64" height="11.81" style="fill:#f5f5f5"></rect><rect x="68.51" y="28.95" width="44.64" height="11.81" style="fill:#f5f5f5"></rect><path d="M340.33,451.89c-.72-2.87,1.17-5.74,3.3-7.81s4.65-3.93,5.77-6.67c1.8-4.46-.56-10.25,2.5-14,1.8-2.18,5-2.9,6.6-5.23a12,12,0,0,0,1.45-4.17,42.56,42.56,0,0,1,10.67-19.71,36.83,36.83,0,0,1-4.25,19c-1.24,2.33-2.76,4.61-3.19,7.22-.68,4.23,1.66,8.62.6,12.78-1.22,4.75-6.59,7.91-6.87,12.81-.24,4.15,3.35,7.81,3.06,11.95a11.24,11.24,0,0,1-1.87,4.9c-3.24,5.31-8,9-15.11,8.8l-8.74.25Z" style="fill:#f5f5f5"></path><path d="M332.48,472.31a7,7,0,0,1-2.41-.06,15.37,15.37,0,0,1-2.83-.73,12,12,0,0,1-3.5-1.95,4.79,4.79,0,0,1-1.43-1.93,8.91,8.91,0,0,1-.4-2.61,25.06,25.06,0,0,0-.19-2.83,7.76,7.76,0,0,0-1.05-2.82c-1-1.81-2.72-3.54-3.26-6s-.14-5,.28-7.66.83-5.48-.16-8.21-2.82-5.22-3.76-8.31-.48-6.46-.66-9.77a12.85,12.85,0,0,0-1.11-4.86c-.7-1.55-1.67-3-2.43-4.65-1.53-3.3-1.78-7-2.19-10.69q-.28-2.78-.59-5.59a27.89,27.89,0,0,0-.94-5.6,50.5,50.5,0,0,0-2.06-5.42,17.22,17.22,0,0,1-1-2.83,28.27,28.27,0,0,1-.27-3,36.1,36.1,0,0,1,.27-6c.25-2,.62-4,.85-6,0-.12,0-.24,0-.35l.05-.4.36.18a13.39,13.39,0,0,1,4.68,4,21.41,21.41,0,0,1,2.86,5.35c1.44,3.76,1.95,7.7,2.66,11.46a31.08,31.08,0,0,0,3.53,10.59c.95,1.57,2.1,3,3.11,4.52a12.4,12.4,0,0,1,2.14,5c.49,3.71-1.56,6.94-1.16,10.22a11.54,11.54,0,0,0,1.57,4.54c.79,1.41,1.71,2.71,2.59,4a26,26,0,0,1,2.33,4.05,12.93,12.93,0,0,1,1.05,4.39c.19,2.95-.24,5.74,0,8.38a19.23,19.23,0,0,0,2.12,7.2c1,2.16,2.21,4.11,3.18,6,.49.94.94,1.87,1.31,2.79a13.45,13.45,0,0,1,.75,2.77,17.44,17.44,0,0,1,0,5,12.63,12.63,0,0,1-2.54,6.35,6,6,0,0,1-.71.76,3.17,3.17,0,0,1-.58.48l-.5.35a10.89,10.89,0,0,0,1.7-1.66,12.69,12.69,0,0,0,2.41-6.31,17.79,17.79,0,0,0-.08-4.92,13.36,13.36,0,0,0-.76-2.7c-.37-.9-.82-1.82-1.32-2.76-1-1.87-2.16-3.81-3.23-6a19.61,19.61,0,0,1-2.19-7.33c-.21-2.7.21-5.5,0-8.38a12.2,12.2,0,0,0-1-4.24,25.28,25.28,0,0,0-2.29-4c-.88-1.3-1.82-2.6-2.63-4a12,12,0,0,1-1.64-4.73c-.4-3.49,1.64-6.75,1.14-10.19a12,12,0,0,0-2.07-4.78c-1-1.5-2.15-2.92-3.13-4.53A31.59,31.59,0,0,1,313.75,385c-.72-3.78-1.23-7.68-2.64-11.36a20.45,20.45,0,0,0-2.79-5.21,12.84,12.84,0,0,0-4.48-3.83l.4-.22,0,.35c-.23,2-.61,4.05-.85,6a35,35,0,0,0-.27,6c.05,1,.11,2,.25,2.91a17.91,17.91,0,0,0,1,2.74,49,49,0,0,1,2.08,5.48,28.07,28.07,0,0,1,.95,5.69c.2,1.88.39,3.74.59,5.59.39,3.68.65,7.35,2.12,10.54.73,1.58,1.7,3.05,2.42,4.65a13.39,13.39,0,0,1,1.14,5c.18,3.38-.28,6.67.61,9.67s2.79,5.47,3.73,8.3.57,5.8.14,8.41-.87,5.19-.32,7.52,2.14,4.06,3.18,5.93a8.12,8.12,0,0,1,1.07,2.93,26.05,26.05,0,0,1,.17,2.86,8.57,8.57,0,0,0,.36,2.54,4.68,4.68,0,0,0,1.34,1.85,12.17,12.17,0,0,0,3.42,1.95,14.59,14.59,0,0,0,2.79.77,11.71,11.71,0,0,0,1.78.19C332.27,472.3,332.48,472.31,332.48,472.31Z" style="fill:#e0e0e0"></path><path d="M305.44,369.17a1.1,1.1,0,0,1,.09.27l.19.78c.16.69.36,1.73.68,3s1.13,2.77,1.79,4.58,1.4,3.88,2.05,6.21,1.23,4.93,1.83,7.71a32.34,32.34,0,0,0,2.75,8.55c.71,1.42,1.5,2.87,2.14,4.44a21.15,21.15,0,0,1,1.23,5A101.06,101.06,0,0,0,320,420.35c1.71,7.18,3.34,14,4.83,20.23s2.89,11.79,4.05,16.5,2,8.46,2.68,11.13c.3,1.28.53,2.3.7,3,.07.32.13.58.17.79a.8.8,0,0,1,0,.27.91.91,0,0,1-.09-.26c-.06-.21-.14-.46-.23-.78-.19-.73-.46-1.73-.8-3-.69-2.66-1.66-6.44-2.86-11.09s-2.6-10.28-4.16-16.47l-4.88-20.23a99.8,99.8,0,0,1-1.82-10.63,20.17,20.17,0,0,0-1.18-4.9c-.61-1.54-1.4-3-2.11-4.41a32.73,32.73,0,0,1-2.74-8.68c-.58-2.79-1.13-5.37-1.76-7.7s-1.29-4.41-2-6.21-1.39-3.29-1.71-4.63-.45-2.36-.59-3.06c-.05-.33-.09-.59-.13-.8A1,1,0,0,1,305.44,369.17Z" style="fill:#e0e0e0"></path><path d="M330.94,472.33c-5.69-3.43-7.27-13.74-4.86-19.92s6.62-11.83,7.3-18.44c.52-5.08-1.11-10.31.1-15.27,1.64-6.69,8.21-11.85,8.18-18.74,0-3.86-2.2-7.51-2-11.38.24-4.73,3.9-8.47,6.18-12.63,3.48-6.37,3.75-13.92,5-21.08s4-14.81,10.36-18.29c.91,6.08,2.48,10.26,1.93,18.49-.19,3-3.66,8.61-4.17,15.09-.3,3.87-.52,7.75-.77,11.63s-.52,7.61-1.9,11.14c-1.05,2.7-2.73,5.14-3.51,7.93-1.48,5.25.39,10.95-.81,16.27-1,4.51-4.16,8.37-4.82,12.94-.94,6.43,3.18,13.13,1,19.24-1.07,3-3.59,5.47-4.32,8.61-.56,2.43,0,5-.49,7.46-.83,3.94-8.37,7-12.38,6.69" style="fill:#e0e0e0"></path><path d="M359.55,342.6a1.83,1.83,0,0,1,0,.35c0,.25-.08.58-.14,1-.13.87-.29,2.16-.59,3.83s-1.21,3.56-1.91,5.83-1.48,4.88-2.14,7.81-1.23,6.16-1.82,9.65a40.61,40.61,0,0,1-3,10.91c-.81,1.82-1.72,3.64-2.41,5.58a25.41,25.41,0,0,0-1.24,6.16,125.15,125.15,0,0,1-1.75,13.3l-5.07,25.37c-1.64,7.77-3.12,14.78-4.37,20.67s-2.28,10.6-3,13.92l-.84,3.78-.24,1a1.32,1.32,0,0,1-.09.33,1.27,1.27,0,0,1,0-.34q.06-.37.18-1c.17-.9.42-2.18.73-3.8.68-3.33,1.64-8.09,2.82-14L339,432.29c1.55-7.8,3.25-16.37,5-25.37a127,127,0,0,0,1.76-13.25,25.37,25.37,0,0,1,1.28-6.29c.7-2,1.62-3.81,2.44-5.62,1.74-3.57,2.36-7.3,3-10.77s1.2-6.73,1.89-9.66,1.46-5.56,2.23-7.82,1.64-4.15,2-5.78.53-2.94.7-3.8c.08-.41.14-.74.19-1A2.74,2.74,0,0,1,359.55,342.6Z" style="fill:#ebebeb"></path></g><g id="freepik--Stairs--inject-4"><path d="M478.11,471.19c-.12-137.14-.19-220.88-.19-222.41,0,1.53-.08,85.19-.2,222.21l-445.84-.06V442.86H90.14V412.49H148.3V377h58.26v-.24q0-15.35,0-30.14H264.7v-.22c0-12.62,0-24.81,0-36.66l58.06,0h.19v-.19c0-10.74,0-20.64,0-30.19l56,0h.16v-.15c0-11.33,0-21.09,0-30.24l98.82-.13-99-.14h-.13v.14c0,9.14,0,18.9,0,30.22l-56.06,0h-.18v.18c0,9.55,0,19.44,0,30.18l-58.08,0h-.21v.21c0,11.85,0,24,0,36.65H206.08v30.36H147.8V412H89.63v30.36H31.36v29.11h.29l446.27-.07h.19Z" style="fill:#263238"></path><path d="M31.65,472h-.29a.5.5,0,0,1-.5-.5V442.34a.5.5,0,0,1,.5-.5H89.13V412a.5.5,0,0,1,.5-.5H147.3v-35a.5.5,0,0,1,.5-.5h57.78V346.16a.5.5,0,0,1,.5-.5h57.68V309.31a.53.53,0,0,1,.15-.36.5.5,0,0,1,.35-.14h.21l57.58,0V279a.5.5,0,0,1,.5-.5l55.74,0,0-29.86a.5.5,0,0,1,.5-.5H379l99,.14h0l.13,0h.07a.54.54,0,0,1,.26.43h0c0,1,0,35.11.08,95l.11,127.37h0v.2a.5.5,0,0,1-.14.35.51.51,0,0,1-.36.15H406.23Zm.73-1.52,444.84.06c.12-131.68.19-214,.2-221.21l-97.82.13,0,29.89a.5.5,0,0,1-.5.5l-55.69,0v29.88a.5.5,0,0,1-.5.5l-57.75,0v36.38a.5.5,0,0,1-.5.5H207.05V377a.51.51,0,0,1-.5.5H148.8v35a.5.5,0,0,1-.5.5H90.64v29.87a.5.5,0,0,1-.5.5H32.38Z" style="fill:#263238"></path></g><g id="freepik--Money--inject-4"><path d="M420.9,172.38s-24.32,36-24.36,53.7c0,11.77,3,21.79,18.53,22.14s35.77.22,35.77.22,21.89-5,11.53-31.94c-9.15-23.79-23.18-44-23.18-44Z" style="fill:#77FFC0"></path><path d="M449.12,149.15c-.26-1.76-2.4-2.53-4.18-2.5-6.24.1-11.61,5.42-17.85,5.1-3.92-.19-7.33-2.59-10.93-4.15a7.39,7.39,0,0,0-2.74-.73,3,3,0,0,0-2.51,1.12c-.88,1.24-.33,2.95.25,4.36,2.89,6.9,7.68,13.75,11.15,20.39l18.05.74a33.16,33.16,0,0,1,7.2-20.87C448.38,151.59,449.31,150.44,449.12,149.15Z" style="fill:#77FFC0"></path><g style="opacity:0.30000000000000004"><path d="M432,228.06l0,3.68-3.29,0,0-3.58a15.63,15.63,0,0,1-8.17-2.68l1.83-4a13.23,13.23,0,0,0,6.36,2.37l0-5.49c-3.64-.9-7.7-2.14-7.68-6.84,0-3.49,2.57-6.46,7.77-7l0-3.65,3.29,0,0,3.58a15,15,0,0,1,6.66,2l-1.67,4a13.53,13.53,0,0,0-5-1.74l0,5.59c3.65.87,7.65,2.11,7.62,6.74C439.71,224.52,437.19,227.46,432,228.06Zm-3.2-14.54,0-4.67c-1.74.38-2.44,1.33-2.44,2.42S427.39,213.05,428.83,213.52Zm5.61,7.95c0-1.15-.94-1.78-2.35-2.28l0,4.53C433.7,223.37,434.43,222.52,434.44,221.47Z"></path></g><path d="M421.32,182.5a18.15,18.15,0,0,1,.7-4.29,18.52,18.52,0,0,1,1.21-4.18,18.15,18.15,0,0,1-.7,4.29A18.31,18.31,0,0,1,421.32,182.5Z" style="fill:#263238"></path><path d="M422.78,193.79a16.11,16.11,0,0,1,.19-3.06c.2-1.88.53-4.47,1-7.32s1-5.42,1.41-7.26a16.77,16.77,0,0,1,.8-3,18.78,18.78,0,0,1-.44,3c-.35,2-.78,4.51-1.25,7.27s-.84,5.26-1.16,7.29A19,19,0,0,1,422.78,193.79Z" style="fill:#263238"></path><path d="M435.61,184.15a25.87,25.87,0,0,1-1.08-5.07,26.34,26.34,0,0,1-.58-5.15A25.22,25.22,0,0,1,435,179,25.84,25.84,0,0,1,435.61,184.15Z" style="fill:#263238"></path><path d="M421,159.42a31,31,0,0,1,4.43,5.18,32,32,0,0,1,3.64,5.77c-.13.08-1.83-2.44-4.06-5.46S420.9,159.52,421,159.42Z" style="fill:#263238"></path><path d="M426.58,154.46a11.93,11.93,0,0,1,.65,2.35c.4,1.65.86,3.57,1.38,5.7s1.06,4,1.49,5.67a12.29,12.29,0,0,1,.55,2.38,10.55,10.55,0,0,1-.9-2.27c-.48-1.43-1.08-3.42-1.65-5.65s-1-4.27-1.23-5.76A10.25,10.25,0,0,1,426.58,154.46Z" style="fill:#263238"></path><path d="M448.84,232.42c-.06-.06.5-.53,1.17-1.46a9.68,9.68,0,0,0,1.74-4,9.8,9.8,0,0,0-.3-4.39c-.34-1.09-.7-1.72-.63-1.76a4,4,0,0,1,1,1.64,8.63,8.63,0,0,1-1.49,8.77A4,4,0,0,1,448.84,232.42Z" style="fill:#263238"></path><path d="M409.19,221.24c-.05,0-.47-.37-.9-1.21a7.22,7.22,0,0,1-.75-3.56,7.37,7.37,0,0,1,1-3.5c.49-.8.95-1.17,1-1.13s-.28.51-.67,1.31a8.5,8.5,0,0,0-.27,6.73A8.65,8.65,0,0,1,409.19,221.24Z" style="fill:#263238"></path><g style="opacity:0.30000000000000004"><path d="M420.42,174.34l-.66.46a14,14,0,0,0,5.23,1,98.86,98.86,0,0,1-1.22,11.26q2.37-5.51,4.21-11.23a22,22,0,0,0,11.23-1.43A173.19,173.19,0,0,0,420.42,174.34Z"></path></g><rect x="417.2" y="169.84" width="24.91" height="5.2" rx="2.39" transform="translate(1.04 -2.58) rotate(0.34)" style="fill:#263238"></rect></g><g id="freepik--Character--inject-4"><path d="M142.07,101.39c-.86-5.4,2.59-10.82,1.59-16.2a10.16,10.16,0,0,0-10.54-8.26c.75-4-2-8.13-5.83-9.61s-8.44-.6-12,1.56c-2.67,1.6-4.94,3.85-7.75,5.21-2.55,1.23-5.43,1.68-8,3a13.21,13.21,0,0,0-2.15,1.4c-.38.2-.76.4-1.13.63a11.85,11.85,0,0,0-2.22,1.79A8.06,8.06,0,0,0,91.46,84c-1.29,2.93-.55,6.78-2.81,9.06-1.86,1.88-5,1.85-7,3.6-2.83,2.53-2,7.46-4.47,10.31-1.83,2.06-4.93,2.41-7.67,2.12s-5.48-1.08-8.21-.74c-.94.12-2,.5-2.27,1.41a2.84,2.84,0,0,0,.69,2.25l3.62,5.41.5.73a.61.61,0,0,1,0,.12q3.91,5.94,7.82,11.87l9.13-5.58c.68,3.52-5,5.65-4.76,9.23a6.28,6.28,0,0,0,1.77,3.39l8,9.68c.93,1.13,2,2.34,3.42,2.62,2.06.4,3.92-1.21,5.4-2.69,4.55-4.51,9.46-9,15.59-11s13.13-1.33,18.05-5.27c2.83-2.27,4.44-5.71,7-8.28,3.36-3.41,8.61-5.77,9.33-10.48C145,108.26,142.63,105,142.07,101.39Z" style="fill:#263238"></path><path d="M104.15,93.36l-1.28,41A12.21,12.21,0,0,0,115.3,147h0c6.51-.12,11.28-2.17,11.59-11.78.1-3.09.41-6.73.44-7,0,0,10.4-1.61,11.48-11.92.52-5,1-13.38,1.07-22.75A19.3,19.3,0,0,0,122.33,74l-1-.09C110.54,73.59,104.21,82.56,104.15,93.36Z" style="fill:#ffbe9d"></path><path d="M127.42,128.19a24.1,24.1,0,0,1-13.1-5.06s2.5,7.72,12.88,7.74Z" style="fill:#eb996e"></path><path d="M136.84,102.48a1.48,1.48,0,0,1-1.56,1.35,1.42,1.42,0,0,1-1.4-1.47,1.48,1.48,0,0,1,1.56-1.35A1.41,1.41,0,0,1,136.84,102.48Z" style="fill:#263238"></path><path d="M137.29,99c-.2.17-1.24-.76-2.83-.9s-2.82.55-3,.34.14-.43.68-.75a4.14,4.14,0,0,1,2.41-.51,3.92,3.92,0,0,1,2.23,1C137.25,98.57,137.38,98.93,137.29,99Z" style="fill:#263238"></path><path d="M121.77,101.45a1.46,1.46,0,0,1-1.55,1.35,1.4,1.4,0,0,1-1.4-1.46,1.48,1.48,0,0,1,1.56-1.36A1.41,1.41,0,0,1,121.77,101.45Z" style="fill:#263238"></path><path d="M122.08,98.19c-.2.18-1.24-.75-2.83-.89s-2.82.54-3,.33.13-.42.68-.74a4.09,4.09,0,0,1,2.4-.51,4,4,0,0,1,2.23,1C122,97.75,122.18,98.12,122.08,98.19Z" style="fill:#263238"></path><path d="M126.32,109.49a10.61,10.61,0,0,1,2.61-.23c.41,0,.8-.05.9-.32a2.1,2.1,0,0,0-.16-1.22c-.29-1-.6-2.08-.92-3.2-1.26-4.54-2.13-8.26-2-8.31s1.36,3.59,2.62,8.14c.3,1.12.59,2.18.86,3.21a2.32,2.32,0,0,1,.06,1.61,1,1,0,0,1-.72.53,2.77,2.77,0,0,1-.69,0A10.09,10.09,0,0,1,126.32,109.49Z" style="fill:#263238"></path><path d="M122,91.92c-.2.41-1.76,0-3.64,0s-3.45.33-3.65-.09c-.08-.2.23-.57.88-.91a4.54,4.54,0,0,1,2.93-.53,5.5,5.5,0,0,1,2.62.57C121.8,91.35,122.1,91.73,122,91.92Z" style="fill:#263238"></path><path d="M138.33,93c-.36.33-1.61-.14-3.15-.28s-2.86,0-3.13-.39c-.11-.19.12-.54.72-.83a4.86,4.86,0,0,1,2.6-.39,4.8,4.8,0,0,1,2.45.92C138.34,92.43,138.49,92.81,138.33,93Z" style="fill:#263238"></path><path d="M126.46,114.61a3.36,3.36,0,0,0-.26-.94,2.25,2.25,0,0,0-1.74-1.23,2.89,2.89,0,0,0-2.08.58,2.28,2.28,0,0,0-.91,1.65,1.28,1.28,0,0,0,.09.51,3,3,0,0,0,2,1.92,2.51,2.51,0,0,0,2.59-.84,1.77,1.77,0,0,0,.35-.76A2.69,2.69,0,0,0,126.46,114.61Z" style="fill:#eb996e"></path><path d="M104.87,107.27a.1.1,0,0,0-.13.1.1.1,0,0,0,.14.08.11.11,0,0,0,0-.17.08.08,0,0,0-.09,0" style="fill:#263238"></path><path d="M105.05,106.84a.1.1,0,0,0-.13.1.09.09,0,0,0,.14.07.1.1,0,0,0,0-.16.08.08,0,0,0-.09,0" style="fill:#263238"></path><path d="M127.78,115.41c0,.12-.42.32-1.2.39a5.18,5.18,0,0,1-3-.65,4.61,4.61,0,0,1-2-2.35c-.27-.73-.25-1.22-.13-1.26.29-.12.87,1.72,2.63,2.74a7.24,7.24,0,0,0,2.5.81C127.31,115.21,127.77,115.26,127.78,115.41Z" style="fill:#263238"></path><path d="M99.71,102.06c-1.79-8.5.06-18,5.85-24.43s15.68-9.35,23.69-6a7.67,7.67,0,0,1,3,2,3.58,3.58,0,0,1,.75,3.43c-.68,1.81-3,2.39-4.89,2.35s-4-.43-5.71.43c-3,1.52-3.28,5.85-5.55,8.39-1.11,1.26-2.7,2-3.73,3.37-2.77,3.59-.84,6-2.74,10.11-.53,1.14-2.64,2.07-3.9,2.16s-.26.14-2.89-.33h0Z" style="fill:#263238"></path><path d="M107.14,104c-.17-.1-6.77-2.93-7.4,4.08s6.55,6.2,6.58,6S107.14,104,107.14,104Z" style="fill:#ffbe9d"></path><path d="M104.42,111.23s-.13.07-.35.15a1.23,1.23,0,0,1-.91-.06,3,3,0,0,1-1.16-2.84,4.07,4.07,0,0,1,.49-1.72,1.46,1.46,0,0,1,1-.86.63.63,0,0,1,.69.4c.07.21,0,.34,0,.36s.17-.1.13-.4a.75.75,0,0,0-.23-.46.88.88,0,0,0-.66-.24,1.73,1.73,0,0,0-1.38,1,4.21,4.21,0,0,0-.59,1.92c-.08,1.42.52,2.8,1.51,3.19a1.33,1.33,0,0,0,1.14-.09C104.39,111.4,104.44,111.24,104.42,111.23Z" style="fill:#eb996e"></path><path d="M61.82,104.84a6.29,6.29,0,0,1,.73.23c.47.16,1.16.42,2.06.68a11.42,11.42,0,0,0,3.36.49,6.18,6.18,0,0,0,4-1.56c1.22-1.15,1.51-3.05,1.9-5A7.77,7.77,0,0,1,75,96.75,4.53,4.53,0,0,1,77.89,95a33.1,33.1,0,0,1,3.43-.42,6,6,0,0,0,3.18-1.19,7.23,7.23,0,0,0,2-2.93,23.08,23.08,0,0,0,1-3.63,17.63,17.63,0,0,1,1.18-3.69,7.07,7.07,0,0,1,2.46-2.89,14.69,14.69,0,0,1,6.77-2,26.37,26.37,0,0,0,6.19-1.07,12.47,12.47,0,0,0,4.48-3c1.2-1.18,2.24-2.31,3.28-3.18a11.62,11.62,0,0,1,2.93-1.86,6.63,6.63,0,0,1,2.13-.53,3,3,0,0,1,.76,0,8,8,0,0,0-2.81.68,11.92,11.92,0,0,0-2.82,1.9c-1,.87-2,2-3.22,3.22a12.42,12.42,0,0,1-4.58,3.16A26.48,26.48,0,0,1,98,78.69a14.25,14.25,0,0,0-6.53,2,6.61,6.61,0,0,0-2.28,2.7A16.63,16.63,0,0,0,88,86.94,23.81,23.81,0,0,1,87,90.65a7.64,7.64,0,0,1-2.16,3.12,6.39,6.39,0,0,1-3.43,1.29c-1.18.14-2.33.16-3.39.39A4.09,4.09,0,0,0,75.42,97a7.35,7.35,0,0,0-1.08,2.77,26.82,26.82,0,0,1-.68,2.81,5.46,5.46,0,0,1-1.38,2.34,6.39,6.39,0,0,1-4.3,1.59,11.2,11.2,0,0,1-3.42-.59c-.91-.29-1.59-.58-2.05-.77A4.15,4.15,0,0,1,61.82,104.84Z" style="fill:#263238"></path><path d="M114.23,368.71l-9.5,29.35,38.6,12.62c.93-3.56-16.74-17.07-16.74-17.07l6.91-18.55Z" style="fill:#77FFC0"></path><g style="opacity:0.6000000000000001"><path d="M115.17,388.12a1.49,1.49,0,1,0-.22,3,1.64,1.64,0,0,0,1.74-1.43,1.68,1.68,0,0,0-1.68-1.53" style="fill:#fff"></path></g><g style="opacity:0.6000000000000001"><path d="M104.73,398.06l1.08-2.92,36.61,13.19s1.48,1.27.91,2.35Z" style="fill:#fff"></path></g><path d="M127.28,393.62c-.07.18-1-.05-2.16.22s-1.85.86-2,.73.47-1.06,1.83-1.37S127.37,393.47,127.28,393.62Z" style="fill:#263238"></path><path d="M130.8,396.53c0,.19-.93.22-1.82.77s-1.33,1.27-1.52,1.21,0-1.12,1.15-1.78S130.86,396.36,130.8,396.53Z" style="fill:#263238"></path><path d="M131.59,401.86c-.18,0-.15-1,.66-1.81s1.81-.92,1.84-.75-.68.52-1.33,1.2S131.79,401.9,131.59,401.86Z" style="fill:#263238"></path><path d="M128.35,389.22c-.13.13-.91-.4-2-.68s-2-.23-2.07-.41,1-.56,2.23-.22S128.49,389.11,128.35,389.22Z" style="fill:#263238"></path><path d="M128.86,384.59a4,4,0,0,1-1.93-.64,9.33,9.33,0,0,1-1.83-1.25,10,10,0,0,1-.93-.92,2.48,2.48,0,0,1-.44-.62.77.77,0,0,1,.23-1,1.12,1.12,0,0,1,1-.14,2.46,2.46,0,0,1,.69.33,8.32,8.32,0,0,1,1.08.78,7.13,7.13,0,0,1,1.41,1.69c.64,1.08.73,1.84.65,1.86s-.36-.67-1-1.62a8.15,8.15,0,0,0-1.43-1.48,7.6,7.6,0,0,0-1-.68c-.37-.24-.72-.36-.88-.22s-.08.08,0,.22a2.21,2.21,0,0,0,.33.45,9,9,0,0,0,.84.89,12.71,12.71,0,0,0,1.64,1.29A15.27,15.27,0,0,1,128.86,384.59Z" style="fill:#263238"></path><path d="M128.53,384.77a2.92,2.92,0,0,1,.07-1.93,5.91,5.91,0,0,1,.93-1.92,5.69,5.69,0,0,1,.85-.94,1.67,1.67,0,0,1,1.54-.52.94.94,0,0,1,.64.77,2.47,2.47,0,0,1,0,.73,4,4,0,0,1-.41,1.23,4.2,4.2,0,0,1-1.44,1.62,2.68,2.68,0,0,1-1.92.59c0-.11.73-.24,1.61-1a4.25,4.25,0,0,0,1.18-1.52,3.62,3.62,0,0,0,.31-1.06c.07-.41,0-.77-.15-.78a1.14,1.14,0,0,0-.87.37,6.3,6.3,0,0,0-1.78,2.54C128.66,384,128.64,384.77,128.53,384.77Z" style="fill:#263238"></path><path d="M70.1,353.61,47,374l26.8,30.52c2.61-2.59-5.71-23.22-5.71-23.22l15.39-12.44Z" style="fill:#77FFC0"></path><g style="opacity:0.6000000000000001"><path d="M61,370.8a1.57,1.57,0,0,0-2.11.31,1.61,1.61,0,0,0,.41,2.12,1.65,1.65,0,0,0,2.23-.34,1.68,1.68,0,0,0-.67-2.17" style="fill:#fff"></path></g><g style="opacity:0.6000000000000001"><path d="M47,374l2.42-2,24.79,30s.63,1.85-.41,2.49Z" style="fill:#fff"></path></g><path d="M68.63,381.69c-.14.12-.86-.57-2-.9s-2-.21-2.1-.4,1-.67,2.27-.24S68.79,381.61,68.63,381.69Z" style="fill:#263238"></path><path d="M70.19,386c-.11.15-.92-.28-2-.27s-1.8.42-1.92.27.59-.94,1.88-.94S70.32,385.87,70.19,386Z" style="fill:#263238"></path><path d="M68.15,391c-.14-.11.38-.93,1.49-1.23s2,.14,2,.31-.85.09-1.76.35S68.3,391.11,68.15,391Z" style="fill:#263238"></path><path d="M71.8,378.45c-.18.05-.59-.8-1.38-1.6s-1.62-1.23-1.57-1.41,1.11,0,2,.95S72,378.43,71.8,378.45Z" style="fill:#263238"></path><path d="M74.6,374.73c-.06,0-.66-.46-1.34-1.54a9.85,9.85,0,0,1-.94-2,11.19,11.19,0,0,1-.33-1.27,2.81,2.81,0,0,1-.06-.75.78.78,0,0,1,.69-.73,1.13,1.13,0,0,1,.9.37,2.69,2.69,0,0,1,.42.64,6.73,6.73,0,0,1,.53,1.22,7.17,7.17,0,0,1,.36,2.18c0,1.25-.31,1.95-.39,1.92s0-.76-.08-1.92a8.05,8.05,0,0,0-.47-2,8.37,8.37,0,0,0-.51-1.1c-.21-.4-.45-.67-.66-.64s-.1,0-.13.18a1.89,1.89,0,0,0,0,.55,9.92,9.92,0,0,0,.27,1.19,11.86,11.86,0,0,0,.76,2A13.46,13.46,0,0,1,74.6,374.73Z" style="fill:#263238"></path><path d="M74.22,374.71c-.06,0,.18-.77,1-1.62A5.8,5.8,0,0,1,77,371.91a6.22,6.22,0,0,1,1.22-.38,1.69,1.69,0,0,1,1.59.34,1,1,0,0,1,.15,1,2.2,2.2,0,0,1-.39.62,4.1,4.1,0,0,1-1,.85,4.31,4.31,0,0,1-2.06.66,2.75,2.75,0,0,1-2-.47,17.64,17.64,0,0,0,1.88,0,4.25,4.25,0,0,0,1.79-.7,4.14,4.14,0,0,0,.81-.76c.26-.32.41-.65.27-.75a1.17,1.17,0,0,0-1-.12,6.23,6.23,0,0,0-1.11.31,6.68,6.68,0,0,0-1.71,1C74.71,374.15,74.32,374.77,74.22,374.71Z" style="fill:#263238"></path><path d="M142.53,187.11s1.95-3.63,2.8-5.4,6.62-5,6.62-5l6.46-6.16a3,3,0,0,1,.35,2.63c-.62,1.63-1,3-1.3,2.27,0,0,4.5-.76,5.35.5a4.51,4.51,0,0,1,.76,2.53l-.43,3.88s.43,3.29-1,4.73a8.47,8.47,0,0,1-.94,2.95,67.47,67.47,0,0,1-5.68,3.8l-8.07,2.66-4.91-9" style="fill:#ffbe9d"></path><path d="M162.65,178.75a15.68,15.68,0,0,1-2.71,1l-3,.92a9.2,9.2,0,0,1-3.85.67,1.91,1.91,0,0,1-1.62-1.41A2.19,2.19,0,0,1,152,178a5.86,5.86,0,0,1,2.83-1.5c.86-.24,1.55-.41,2-.58s.71-.27.73-.23-.2.2-.65.42a17.73,17.73,0,0,1-2,.74,5.82,5.82,0,0,0-2.58,1.46,1.76,1.76,0,0,0-.4,1.5,1.41,1.41,0,0,0,1.22,1,9.8,9.8,0,0,0,3.61-.62l3-.82A15.38,15.38,0,0,1,162.65,178.75Z" style="fill:#eb996e"></path><path d="M162.36,183a1.78,1.78,0,0,1-.07-.62l.12.08c-.61.29-1.78.78-3.31,1.39a20.43,20.43,0,0,1-2.6.92,3,3,0,0,1-1.64-.06,1.72,1.72,0,0,1-1.17-1.34,2.25,2.25,0,0,1,.88-2,6.87,6.87,0,0,1,1.71-.93,18.54,18.54,0,0,1,3.06-1,12.54,12.54,0,0,1,2.15-.32,2.14,2.14,0,0,1,.79,0c0,.09-1.12.14-2.85.64a22.86,22.86,0,0,0-3,1.1,7.11,7.11,0,0,0-1.57.88,1.78,1.78,0,0,0-.7,1.54,1.23,1.23,0,0,0,.84.94,2.42,2.42,0,0,0,1.36.05,22.48,22.48,0,0,0,2.55-.83c1.54-.55,2.74-1,3.39-1.15l.13,0v.13C162.43,182.76,162.39,183,162.36,183Z" style="fill:#eb996e"></path><path d="M162.54,185.8a13.23,13.23,0,0,1-2.4.83l-2.64.76c-.51.13-1,.29-1.58.42a2.85,2.85,0,0,1-.93.06,1.26,1.26,0,0,1-.93-.56,1.48,1.48,0,0,1,.56-1.85,11.59,11.59,0,0,1,1.44-.84,14.53,14.53,0,0,1,2.59-1,7,7,0,0,1,2.51-.42c0,.08-.94.25-2.4.77a17.15,17.15,0,0,0-2.48,1.09,10.15,10.15,0,0,0-1.34.81,1,1,0,0,0-.43,1.18c.2.37.81.37,1.32.27s1.06-.27,1.55-.39l2.66-.65A11.76,11.76,0,0,1,162.54,185.8Z" style="fill:#eb996e"></path><path d="M161.56,188.57a3.6,3.6,0,0,1-1.36.94,8.76,8.76,0,0,1-3.89.89l-.59,0a.74.74,0,0,1-.67-.41.9.9,0,0,1,.07-.71,5.42,5.42,0,0,1,.26-.48,3.91,3.91,0,0,1,1.35-1.27c.94-.51,1.63-.44,1.62-.38a12.38,12.38,0,0,0-1.42.7,3.88,3.88,0,0,0-1.14,1.2c-.15.25-.33.64-.27.75s.43.11.79.1A13.72,13.72,0,0,0,161.56,188.57Z" style="fill:#eb996e"></path><path d="M152.4,191.49a13.14,13.14,0,0,1,.51-1.57,9,9,0,0,0,.21-3.87,8.52,8.52,0,0,0-1.21-3.16l-.08-.13.09-.11c.85-1,1.42-1.65,1.49-1.59a7.67,7.67,0,0,1-1.17,1.84v-.24a7.72,7.72,0,0,1,1.39,3.31,8,8,0,0,1-.38,4.07A3.4,3.4,0,0,1,152.4,191.49Z" style="fill:#eb996e"></path><polygon points="131.74 189.6 141.66 184.32 148.67 197.8 127.01 211.28 125.5 200.1 131.74 189.6" style="fill:#77FFC0"></polygon><path d="M141.21,204c.22,0,12.69.15,14.11,1.11a12.6,12.6,0,0,1,3.11,4.21c.15.44,1.34,3.35.38,4.11a6.73,6.73,0,0,1-2.38,1.06,3.56,3.56,0,0,1-.15,2.51,4.26,4.26,0,0,1-1.93,1.84s-.15,2.44-1,3.25a3.88,3.88,0,0,1-2.22.89s-2.23,1.62-3.64.59-3.42-2.29-3.05-2.95-11-4.36-11.51-6.21-1-4.53-1-4.53l4.26-7.53Z" style="fill:#ffbe9d"></path><path d="M106.3,130c-6.13,1.86-8,6-11,11.5-4.64,8.6-11.75,22.19-15.53,30.93-4.93,11.4-2.68,19.69,2,24.46s49.55,22.45,49.55,22.45l9.8-16.56L103.05,181s15.3-23.7,16.78-27.07,6.66-15.62-3.86-23.05C112.3,128.33,110.29,128.77,106.3,130Z" style="fill:#77FFC0"></path><path d="M119.83,134.71c-1-.84-3.14-4.53-9-5.92-2.95-.71-8.85,2.05-10.92,5.2-3.94,6-7.62,10.92-10.51,19.78-3,9.23-.89,42.75-.89,42.75l-9.14,19.09A5.63,5.63,0,0,0,82.79,223l40.82,11.11h0a21.5,21.5,0,0,0,5.75-14.5l.09-13.85,3.83-14.13s5.39-9.58,5.39-18.77-9.57-30.22-11.15-34.17C127.52,138.72,121.09,135.77,119.83,134.71Z" style="fill:#77FFC0"></path><path d="M118.51,155.61s-.06.17-.22.5-.4.8-.72,1.42c-.66,1.24-1.66,3.05-3,5.37-2.63,4.63-6.52,11.31-11.38,19.53l-.07-.26,38.18,20.93.23.13-.14.22-9.79,16-.11.18-.2-.08-9.69-3.76c-6.65-2.63-13.13-5.24-19.34-7.87s-12.2-5.2-17.67-8.17a21,21,0,0,1-2-1.22,8.06,8.06,0,0,1-.93-.73l-.8-.84a17.54,17.54,0,0,1-2.52-3.74,19,19,0,0,1-1.93-8.34,25.75,25.75,0,0,1,1.32-7.9,63.74,63.74,0,0,1,2.84-6.8c3.85-8.55,7.07-15.42,9.44-20.1,1.18-2.34,2.13-4.14,2.8-5.35l.77-1.36c.18-.31.28-.46.28-.46s-.07.17-.23.48l-.73,1.39c-.63,1.23-1.56,3-2.71,5.39-2.31,4.71-5.48,11.59-9.29,20.16a68.75,68.75,0,0,0-2.79,6.77,25.66,25.66,0,0,0-1.27,7.77A18.68,18.68,0,0,0,78.79,193a16.83,16.83,0,0,0,2.46,3.63,12.1,12.1,0,0,0,3.6,2.68c5.42,2.94,11.43,5.48,17.62,8.12s12.69,5.23,19.34,7.85l9.68,3.77-.31.11,9.8-16,.09.35L103,182.5l-.17-.09.1-.17c4.9-8.2,8.84-14.84,11.52-19.45,1.33-2.29,2.36-4.08,3.07-5.31.34-.62.6-1.08.77-1.4A4.85,4.85,0,0,1,118.51,155.61Z" style="fill:#263238"></path><path d="M138.8,171.4a4.16,4.16,0,0,1,.08,1.07c0,.69,0,1.69-.1,2.92a39.46,39.46,0,0,1-2.1,9.39c-1.23,3.56-2.53,6.69-3.34,9s-1.26,3.76-1.34,3.74a4.69,4.69,0,0,1,.2-1.06c.15-.67.43-1.63.79-2.8.73-2.36,2-5.52,3.2-9a45.68,45.68,0,0,0,2.22-9.27C138.69,172.92,138.71,171.4,138.8,171.4Z" style="fill:#263238"></path><path d="M132.44,198.27c.12.06-1.75,4.07-4.18,9a91.5,91.5,0,0,1-4.64,8.72,95.38,95.38,0,0,1,4.17-9A92.82,92.82,0,0,1,132.44,198.27Z" style="fill:#263238"></path><path d="M128.92,213.31c0-.07.45-.16.78.37a1,1,0,0,1,.06,1,1.07,1.07,0,0,1-1.17.51,1.11,1.11,0,0,1-.92-.88,1.17,1.17,0,0,1,.3-1c.42-.43.84-.33.82-.27s-.31.14-.53.5a.69.69,0,0,0,.42,1.12.62.62,0,0,0,.66-.24.73.73,0,0,0,0-.63C129.23,213.45,128.91,213.38,128.92,213.31Z" style="fill:#263238"></path><path d="M142.33,199.49a26.92,26.92,0,0,1-4-5.37,27.39,27.39,0,0,1-3-6c.14-.07,1.52,2.57,3.44,5.69S142.45,199.39,142.33,199.49Z" style="fill:#263238"></path><path d="M93.9,183.92s.32-.51,1.06-1.09a10,10,0,0,1,3.26-1.67,10.2,10.2,0,0,1,3.64-.4,3.28,3.28,0,0,1,1.48.33,20.36,20.36,0,0,0-5,.57A19.72,19.72,0,0,0,93.9,183.92Z" style="fill:#263238"></path><path d="M120.6,147.26c-.08,0,.33-.95.61-2.52a13.32,13.32,0,0,0-.29-6.12,13.48,13.48,0,0,0-3.07-5.32c-1.09-1.16-1.93-1.72-1.88-1.79a6.51,6.51,0,0,1,2.15,1.53,12.51,12.51,0,0,1,3.29,5.43,12.33,12.33,0,0,1,.16,6.35A6.45,6.45,0,0,1,120.6,147.26Z" style="fill:#263238"></path><path d="M82.53,222.7S67.32,236.86,79,255.61s50.24,58.73,50.24,58.73-9.91,31.48-11.68,39.27S109.06,383,109.06,383l20.17,6.73s34.45-75.95,35-79.25c1-5.81-1.07-9.56-3.9-14.16s-36.79-61.56-36.79-61.56Z" style="fill:#263238"></path><path d="M102.78,316.94s-21-46.12-23.44-48.95-14.15-25.47,0-40l50.24,38.92s8.85,46.35,5.31,54.48-9.34,13.45-15.46,17.69-47,40-47,40L57.76,362.81s23.2-25.95,28.31-32.2C92.44,322.83,102.78,316.94,102.78,316.94Z" style="fill:#263238"></path><path d="M109.06,383s0-.12.08-.35l.28-1c.26-.92.63-2.24,1.1-3.93,1-3.45,2.42-8.4,4.2-14.55,3.6-12.35,8.61-29.5,14.26-48.86l.06.25c-2.08-2.28-4.35-4.65-6.61-7.07C107.05,291.1,93.59,275.84,84.85,264c-2.2-2.95-4.08-5.7-5.64-8.17a54.3,54.3,0,0,1-3.64-6.56A22,22,0,0,1,74,244.8a16.28,16.28,0,0,1-.18-1.64,2,2,0,0,1,.08.42c.06.27.09.68.21,1.2a22.84,22.84,0,0,0,1.66,4.41,56.5,56.5,0,0,0,3.71,6.48c1.57,2.45,3.47,5.18,5.68,8.11,8.8,11.76,22.3,27,37.67,43.3,2.27,2.42,4.52,4.79,6.61,7.08l.1.11,0,.14c-5.72,19.33-10.78,36.47-14.43,48.81-1.84,6.13-3.32,11.07-4.34,14.5-.52,1.68-.92,3-1.2,3.91-.13.42-.24.76-.32,1A1.61,1.61,0,0,1,109.06,383Z" style="fill:#455a64"></path><path d="M136.17,311.43a26.12,26.12,0,0,1-3.45,1.68,24.79,24.79,0,0,1-3.48,1.63,10.24,10.24,0,0,1,3.25-2.1A10.14,10.14,0,0,1,136.17,311.43Z" style="fill:#455a64"></path><path d="M83.44,306c0,.15-8.85.26-19.77.26S43.9,306.1,43.9,306s8.85-.26,19.77-.26S83.44,305.81,83.44,306Z" style="fill:#263238"></path><path d="M62,299.93c0,.14-6.8.26-15.19.26s-15.19-.12-15.19-.26,6.8-.26,15.19-.26S62,299.79,62,299.93Z" style="fill:#263238"></path></g><g id="freepik--speech-bubble--inject-4"><path d="M160.29,108.91l8.14,1a25.32,25.32,0,1,0-4-8.14h0Z" style="fill:#fff"></path><path d="M160.29,108.91l.25-.46c.18-.32.43-.78.76-1.36l3-5.4a.12.12,0,0,1,.16,0l0,0v0l-.2.08a25.38,25.38,0,0,1,39.41-27.42,24.87,24.87,0,0,1,7.81,9.31,25.87,25.87,0,0,1,2.06,5.84,25.3,25.3,0,0,1,.55,6,25.38,25.38,0,0,1-19.19,24A25.28,25.28,0,0,1,168.34,110l.08,0-6.09-.81-1.54-.21-.5-.07.56,0,1.57.17,6,.66a.08.08,0,0,1,.07,0,25.12,25.12,0,0,0,26.36,9.3,25.18,25.18,0,0,0,15.93-12.53,25.34,25.34,0,0,0,2.86-11A24.08,24.08,0,0,0,211.1,83.9,25,25,0,0,0,193,70.31a25.08,25.08,0,0,0-19.63,4.9,25.35,25.35,0,0,0-9.07,14.17,25.15,25.15,0,0,0,.27,12.34.12.12,0,0,1-.08.14.11.11,0,0,1-.13,0h.19c-1.36,2.28-2.41,4-3.14,5.26l-.82,1.37Z" style="fill:#263238"></path><path d="M184.67,83.68l1.33,13a2.11,2.11,0,0,0,2.05,1.9h0a2.11,2.11,0,0,0,2.15-2l.94-13.12a1.66,1.66,0,0,0-1.74-1.77l-3.17.17A1.65,1.65,0,0,0,184.67,83.68Z" style="fill:#77FFC0"></path><path d="M191.78,105.72a3.18,3.18,0,1,1-2.17-3.94A3.17,3.17,0,0,1,191.78,105.72Z" style="fill:#77FFC0"></path></g></svg>